<svg xmlns="http://www.w3.org/2000/svg" width="48" height="48" fill="none" viewBox="0 0 48 48">
  <path fill="currentColor" d="M19.983 4.005c.012.028-.238.157-.558.289-.32.131-.589.215-.6.187-.012-.028.238-.157.558-.288.32-.132.589-.216.6-.188Zm.847.025c.016.036-.229.177-.546.315-.317.138-.587.221-.602.186-.016-.036.229-.176.546-.314.317-.139.587-.222.602-.186Zm.473.127c.02.04-.178.185-.444.325-.267.14-.499.223-.52.184-.02-.04.178-.185.445-.326.266-.14.498-.222.519-.183Zm.52.105c.027.035-.107.178-.299.318-.19.14-.367.225-.393.19-.027-.037.107-.18.299-.32.19-.14.367-.224.393-.188Zm.659.112c.037.035-.031.164-.151.288-.12.123-.247.195-.283.16-.037-.036.031-.165.151-.288.12-.124.247-.195.283-.16Zm-4.057.174c.02.043-.256.212-.616.378s-.667.266-.687.223c-.02-.043.256-.213.615-.378.36-.166.668-.266.688-.223Zm4.745-.001c.042.03-.008.167-.11.306-.1.14-.216.228-.257.198-.041-.03.008-.167.11-.306.101-.14.217-.228.258-.198Zm-4.43.229c.023.042-.23.219-.564.396-.334.177-.622.286-.645.244-.022-.041.231-.219.565-.396.334-.176.623-.286.645-.244Zm.6.198c.034.054-.19.253-.498.445-.309.19-.586.301-.62.247-.034-.055.19-.254.498-.445.308-.19.586-.302.62-.247Zm.81.176c.042.055-.149.27-.427.478-.278.208-.537.33-.58.274-.042-.056.15-.27.427-.478.278-.208.538-.331.58-.275Zm1.034.113c.044.053-.103.248-.327.436-.224.188-.441.298-.485.245-.044-.052.102-.247.326-.435.224-.188.442-.298.486-.246Zm-4.669.013c.023.042-.245.237-.599.436-.354.2-.66.327-.683.285-.024-.042.244-.237.598-.436.354-.2.66-.326.684-.285Zm5.685.113c.057.046.002.207-.123.358-.124.151-.271.236-.328.19-.056-.046-.001-.207.123-.358.125-.152.272-.237.328-.19Zm1.185.121c.054.038.041.148-.028.245s-.169.145-.223.107c-.053-.038-.041-.148.028-.246.07-.097.17-.145.223-.106Zm-6.635.066c.033.05-.239.286-.608.525-.369.24-.694.393-.727.343-.033-.051.239-.287.608-.526.369-.24.695-.393.727-.342Zm.612.32c.045.066-.215.32-.58.565-.366.245-.698.39-.743.323-.044-.066.215-.32.58-.565.366-.245.698-.39.743-.323Zm.95.234c.063.08-.156.355-.489.616-.332.26-.653.407-.715.328-.063-.08.156-.356.488-.617.333-.26.653-.408.716-.328Zm1.136.209c.075.079-.078.345-.341.595-.264.25-.538.389-.613.31-.075-.079.078-.346.341-.596.264-.25.539-.388.613-.31Zm1.4.088c.093.075.01.333-.186.577-.196.244-.43.381-.524.306-.093-.075-.01-.333.186-.577.196-.244.431-.381.524-.306Zm-6.522-.032c.02.027-.154.182-.387.345-.233.164-.438.274-.457.247-.019-.027.154-.182.387-.346.233-.163.438-.274.457-.246Zm.471.102c.039.05-.225.318-.59.598-.364.28-.691.465-.73.414-.04-.051.225-.319.59-.599.364-.279.69-.464.73-.413Zm7.554.057c.096.06.077.262-.042.45-.12.187-.294.29-.39.23-.095-.061-.076-.263.043-.45.12-.188.294-.29.39-.23Zm1.61.04c.076.034.093.159.039.278-.054.12-.159.19-.234.155-.075-.034-.092-.158-.039-.278.054-.12.16-.189.234-.155Zm-8.588.262c.057.07-.21.378-.595.69-.385.312-.742.51-.798.44-.056-.069.21-.378.595-.69.385-.312.742-.51.799-.44Zm.961.34c.085.096-.148.443-.522.774-.374.33-.746.52-.832.424-.085-.097.148-.443.522-.774s.746-.52.832-.424Zm1.292.3c.11.109-.054.457-.368.777s-.66.49-.77.382c-.111-.11.053-.457.368-.777.314-.32.659-.491.77-.382Zm-4.505.024c.037.046-.242.329-.623.631-.382.303-.72.51-.758.463-.037-.046.242-.33.624-.632.381-.302.72-.51.757-.463Zm6.047.202c.13.104.044.429-.194.725-.237.296-.534.451-.665.347-.13-.104-.043-.429.194-.725s.535-.451.665-.347Zm1.766.104c.147.086.138.374-.02.645-.158.27-.405.42-.551.334-.147-.086-.138-.375.02-.645.157-.27.404-.42.551-.334Zm2.031.048c.134.076.146.31.027.521-.12.212-.326.323-.46.247-.134-.075-.146-.309-.026-.52.12-.213.325-.323.46-.248Zm-9.502.081c.068.074-.193.425-.582.783-.389.359-.759.59-.827.516-.068-.074.192-.425.581-.783.389-.359.76-.59.828-.516Zm11.345-.075c.116-.026.238.087.274.25.035.164-.03.317-.146.342-.116.025-.238-.087-.274-.25-.035-.164.03-.317.146-.343Zm-10.479.459c.104.1-.121.502-.503.897-.381.395-.775.634-.879.533-.104-.1.12-.502.502-.897.381-.395.775-.634.88-.533Zm1.337.42c.137.127-.038.536-.39.912-.351.376-.747.578-.883.45-.136-.127.038-.535.39-.911.352-.377.747-.578.883-.451Zm-4.208-.124c.025.024-.23.333-.569.69-.34.358-.634.629-.659.605-.025-.023.23-.332.57-.69.338-.358.634-.628.658-.605Zm5.912.413c.163.133.055.533-.24.894s-.666.546-.828.413c-.163-.133-.055-.533.24-.894.295-.36.666-.546.829-.413Zm-5.658.017c.069.06-.172.447-.538.866-.365.42-.716.71-.785.651-.068-.06.173-.447.539-.866.365-.419.716-.71.784-.65Zm7.603.147c.194.12.18.493-.03.835-.211.342-.539.523-.733.404-.193-.12-.18-.493.031-.835.21-.342.538-.523.732-.404Zm2.193.116c.207.095.265.414.128.713-.136.3-.414.466-.621.372-.207-.094-.264-.413-.128-.713s.414-.466.621-.372Zm4.654-.035c.106-.043.243.046.306.2.063.153.027.313-.08.356-.106.044-.243-.046-.306-.2-.062-.153-.027-.312.08-.356Zm-2.422.053c.198.01.347.216.334.46-.013.243-.184.431-.381.42-.197-.01-.347-.216-.333-.459.013-.243.183-.432.38-.42ZM12.4 9.6c.118.1-.087.535-.457.97-.37.435-.767.705-.885.605-.118-.1.087-.535.457-.97.37-.435.767-.706.885-.605Zm1.287.462c.163.132.003.599-.356 1.043-.36.444-.783.697-.946.565-.163-.132-.003-.599.357-1.043.36-.444.782-.696.945-.565Zm1.753.351c.21.154.122.638-.2 1.081-.322.444-.754.679-.966.526-.212-.154-.122-.638.2-1.082.321-.443.753-.678.965-.525Zm-5.267-.098c.063.048-.15.43-.476.853-.325.423-.639.728-.701.68-.063-.048.15-.43.475-.853.326-.424.64-.728.702-.68Zm7.405.404c.222.156.171.61-.113 1.014-.284.404-.694.606-.916.45-.221-.155-.17-.61.114-1.014.284-.404.694-.606.915-.45Zm2.382.161c.234.137.248.546.032.913-.216.368-.58.554-.813.417-.234-.137-.248-.546-.032-.913s.58-.554.814-.417Zm7.795-.033c.084-.1.243-.103.354-.009.11.094.133.251.048.35-.084.1-.242.103-.353.009-.111-.095-.133-.251-.049-.35Zm-17.101.003c.116.083-.091.567-.462 1.08-.37.514-.765.862-.881.778-.116-.084.09-.568.461-1.081s.766-.861.882-.778Zm11.796.053c.248.069.374.392.282.723-.092.33-.367.542-.614.473-.248-.069-.374-.392-.282-.723.092-.33.367-.542.614-.473Zm2.598-.019c.216-.031.42.146.456.396.036.25-.109.478-.325.509-.215.031-.42-.146-.455-.396-.037-.25.109-.478.324-.509Zm-13.308.538c.183.125.046.647-.307 1.165-.352.518-.787.837-.971.712-.184-.125-.047-.647.306-1.165.352-.518.787-.837.971-.712Zm1.691.445c.244.151.179.697-.145 1.22-.324.524-.784.826-1.027.675-.244-.15-.179-.697.145-1.22.324-.524.784-.825 1.027-.675Zm-4.527-.165c.033.02-.162.396-.435.84-.273.443-.52.786-.553.767-.032-.02.163-.396.436-.84.273-.443.52-.787.552-.767Zm6.723.593c.266.165.243.686-.052 1.163s-.75.73-1.018.565c-.266-.165-.243-.686.052-1.163s.75-.73 1.018-.565Zm-6.484-.072c.102.062-.085.551-.417 1.091-.332.54-.684.928-.786.865-.102-.063.085-.551.417-1.091.333-.54.684-.928.786-.865Zm9.037.296c.287.169.308.666.047 1.11-.261.446-.707.669-.994.5-.288-.17-.309-.667-.047-1.111.261-.445.706-.668.994-.5Zm11.58-.087c.048-.081.172-.097.277-.035.105.063.15.18.102.261-.049.082-.173.098-.278.035-.105-.062-.15-.179-.102-.26Zm-3.06.089c.207-.064.436.08.51.321.075.242-.034.49-.242.553-.208.064-.437-.08-.511-.321-.075-.242.034-.489.242-.553Zm-5.804.103c.3.12.414.546.252.95-.162.406-.537.636-.838.516-.3-.12-.414-.545-.252-.95.162-.405.537-.636.838-.516Zm2.797-.03c.29.006.521.297.513.65-.007.354-.25.635-.54.629-.292-.006-.522-.298-.515-.651.008-.353.25-.635.542-.628Zm-13.748.215c.19.106.066.686-.275 1.295-.342.61-.772 1.017-.962.911-.19-.106-.066-.686.276-1.295.341-.61.772-1.017.961-.911Zm1.641.571c.285.167.233.786-.116 1.383-.35.596-.864.944-1.149.777-.285-.167-.233-.786.116-1.382.35-.597.864-.945 1.149-.778Zm-3.686.231c.062.03-.108.518-.379 1.091-.27.574-.54 1.015-.602.986-.062-.03.108-.518.379-1.091.27-.574.54-1.015.602-.986Zm5.755.26c.318.168.34.755.047 1.31-.293.557-.788.871-1.107.704-.319-.168-.34-.755-.048-1.311.293-.556.789-.87 1.108-.703Zm2.571.333c.343.171.409.733.147 1.255-.261.523-.75.807-1.093.636-.342-.171-.408-.733-.147-1.256.262-.522.75-.806 1.093-.635Zm2.894.149c.368.148.51.66.316 1.147-.195.486-.65.76-1.019.613-.368-.147-.51-.66-.316-1.146.194-.486.65-.76 1.019-.614Zm-10.757-.071c.165.069.083.647-.184 1.293-.267.645-.617 1.113-.783 1.044-.165-.068-.082-.646.185-1.292.267-.645.617-1.113.782-1.045Zm20.368-.045c.207-.043.412.101.458.322.046.22-.085.435-.292.478-.207.042-.412-.102-.457-.323-.046-.22.084-.434.291-.477Zm-6.429.235c.34.136.484.574.323.979-.162.405-.569.623-.909.487-.34-.135-.484-.574-.322-.978.161-.405.568-.624.908-.488Zm3.108-.142c.31 0 .56.295.56.66 0 .365-.25.66-.56.66-.308 0-.558-.295-.558-.66 0-.365.25-.66.559-.66Zm-15.73.6c.26.111.25.719-.021 1.358-.271.64-.702 1.069-.961.959-.26-.11-.25-.718.021-1.357.272-.64.702-1.07.961-.96Zm1.973.517c.352.135.432.777.18 1.432-.253.656-.743 1.077-1.095.942-.352-.136-.432-.777-.18-1.433.253-.656.743-1.077 1.095-.941Zm2.547.456c.401.148.544.76.32 1.364-.225.605-.731.975-1.132.826-.4-.148-.543-.76-.319-1.364.224-.605.731-.975 1.132-.826Zm-7.054-.086c.117.037.042.607-.17 1.273-.21.666-.477 1.175-.595 1.138-.118-.037-.042-.607.169-1.273.21-.666.478-1.175.596-1.138Zm23.657.214c.14-.124.366-.097.505.06.139.156.139.384 0 .508-.14.124-.366.097-.505-.06-.14-.156-.14-.384 0-.508Zm-13.568.191c.41.173.554.756.324 1.303-.231.547-.75.85-1.16.678-.41-.173-.554-.756-.323-1.303.23-.547.75-.85 1.159-.678Zm3.148.101c.432.1.687.593.57 1.101-.117.508-.562.84-.994.74-.432-.1-.688-.592-.57-1.1.117-.509.562-.84.994-.74Zm6.983-.123c.31-.008.568.252.578.583.01.331-.233.607-.542.616-.31.01-.568-.251-.578-.582-.01-.331.233-.607.542-.616Zm-3.597.122c.392.02.693.387.672.82-.022.435-.358.77-.75.75-.393-.019-.694-.386-.673-.82.022-.434.358-.77.75-.75Zm-15.727.203c.235.067.27.663.079 1.33-.192.669-.537 1.155-.772 1.088-.234-.067-.27-.663-.078-1.33.191-.668.537-1.155.771-1.088Zm1.706.702c.341.1.455.74.255 1.429-.2.69-.64 1.169-.981 1.07-.341-.1-.455-.74-.254-1.43.2-.69.64-1.168.98-1.069Zm-3.477.131c.067.015-.001.566-.152 1.23-.15.664-.326 1.19-.393 1.175-.066-.015.002-.565.152-1.23.15-.664.326-1.19.393-1.175Zm5.957.26c.443.118.652.77.47 1.455-.184.685-.691 1.145-1.134 1.026-.442-.118-.652-.77-.47-1.455.184-.685.692-1.144 1.134-1.026Zm21.029.179c.121-.043.261.04.312.184.05.144-.007.296-.129.339-.121.043-.261-.04-.312-.184-.05-.145.007-.296.129-.339Zm-18.073.208c.47.124.713.75.543 1.397-.17.647-.69 1.072-1.16.948-.47-.124-.713-.749-.543-1.397.17-.647.69-1.072 1.16-.948Zm-8.36.075c.194.04.225.686.07 1.445-.154.758-.436 1.34-.63 1.301-.193-.04-.225-.686-.07-1.444.154-.759.436-1.342.63-1.302Zm22.731-.03a.543.543 0 0 1 .545.54.543.543 0 0 1-.511.572.543.543 0 0 1-.545-.54.543.543 0 0 1 .511-.572Zm-11.197.22c.502.04.87.547.823 1.131-.047.584-.492 1.025-.994.984-.502-.04-.87-.547-.823-1.13.047-.585.492-1.025.994-.985Zm3.661.043c.455.053.775.516.715 1.034-.06.518-.479.895-.934.842-.456-.054-.776-.517-.715-1.035.06-.518.478-.895.934-.841Zm3.715-.076c.39.004.702.357.697.787-.005.431-.325.776-.715.772-.39-.005-.702-.357-.697-.788.005-.43.325-.776.715-.771Zm-17.609.652c.313.053.468.67.347 1.379-.12.708-.472 1.239-.785 1.186-.312-.054-.468-.671-.347-1.38.12-.708.472-1.239.785-1.185Zm2.145.651c.435.058.71.675.618 1.378-.093.703-.52 1.226-.955 1.169-.433-.058-.71-.674-.616-1.377.093-.703.52-1.227.954-1.17Zm-4.358.225c.113.01.147.644.076 1.415-.071.77-.22 1.387-.333 1.377-.113-.01-.147-.644-.076-1.415.071-.77.22-1.387.333-1.377Zm7.192.111c.517.044.887.649.827 1.352-.059.703-.526 1.238-1.042 1.194-.516-.044-.886-.649-.827-1.352.06-.703.526-1.238 1.042-1.194Zm18.763.083a.464.464 0 0 1 .455.472.464.464 0 0 1-.466.462.464.464 0 0 1-.455-.472.464.464 0 0 1 .466-.462Zm-15.392.221c.528.064.89.654.81 1.317-.081.663-.575 1.148-1.103 1.083-.529-.064-.891-.654-.81-1.317.08-.663.575-1.148 1.103-1.083Zm11.427.038c.368.004.664.33.66.728-.006.398-.308.718-.677.713-.369-.004-.664-.33-.66-.728.005-.398.308-.717.677-.713Zm-7.941.156c.52-.023.962.433.988 1.018.026.585-.373 1.079-.893 1.102-.52.023-.962-.432-.988-1.018-.026-.585.374-1.079.893-1.102Zm3.965-.018c.462.005.831.419.825.924-.005.505-.384.91-.846.904-.461-.005-.83-.419-.825-.923.006-.505.385-.91.846-.905Zm-17.089.278c.24.014.398.618.353 1.347-.045.73-.277 1.309-.517 1.294-.241-.015-.4-.618-.354-1.348.045-.73.277-1.308.518-1.293Zm1.825.694c.385.011.68.602.66 1.32-.02.718-.346 1.292-.73 1.281-.385-.01-.68-.6-.661-1.319.02-.718.347-1.292.731-1.282Zm25.716.54c.143.052.204.246.136.434-.068.188-.24.298-.383.246-.144-.052-.205-.246-.136-.434.068-.188.24-.298.383-.246Zm-23.113.056c.491.014.873.6.853 1.309-.02.709-.433 1.272-.924 1.259-.491-.014-.873-.6-.854-1.309.02-.709.434-1.273.925-1.259Zm3.275.276c.582.025 1.029.619.998 1.327-.03.708-.526 1.262-1.107 1.237-.582-.025-1.028-.62-.998-1.328.03-.708.527-1.262 1.108-1.236Zm15.662-.007c.34.004.613.3.61.662-.005.363-.284.653-.625.649-.34-.004-.613-.3-.609-.663.005-.362.284-.652.624-.648Zm-12.25.239c.563-.064 1.079.404 1.152 1.046.074.642-.322 1.215-.885 1.28-.563.065-1.079-.404-1.152-1.046-.074-.642.322-1.215.885-1.28Zm-11.979-.037c.164-.003.307.591.319 1.326.012.735-.112 1.334-.276 1.336-.164.003-.306-.59-.318-1.326-.012-.735.111-1.334.275-1.336Zm20.098.029c.448.005.807.396.801.873-.005.477-.373.86-.82.855-.448-.005-.807-.396-.802-.873.006-.478.373-.86.821-.855Zm-4.091.07c.521 0 .944.462.944 1.035 0 .572-.421 1.036-.942 1.036-.521 0-.944-.463-.945-1.035 0-.572.422-1.036.943-1.036Zm-14.6.669c.305-.02.59.555.636 1.283.046.727-.165 1.333-.47 1.352-.306.02-.591-.555-.637-1.282-.046-.728.165-1.333.47-1.353Zm2.246.635c.422-.042.824.51.898 1.235.073.725-.21 1.347-.631 1.39-.422.043-.824-.51-.897-1.235-.074-.724.208-1.347.63-1.39Zm2.774.463c.505-.121 1.056.365 1.229 1.087.173.721-.098 1.404-.604 1.525-.507.122-1.057-.365-1.23-1.086-.173-.722.098-1.405.604-1.526Zm20.29-.03c.254.09.38.388.282.664-.099.276-.384.427-.638.336-.253-.09-.38-.387-.28-.663.097-.277.383-.427.636-.337Zm-27.194-.026c.091-.013.249.557.353 1.274.104.717.115 1.31.025 1.323-.09.013-.249-.558-.353-1.275-.104-.717-.115-1.31-.025-1.322Zm10.728.233c.608-.006 1.107.577 1.114 1.3.007.725-.481 1.317-1.09 1.323-.608.006-1.107-.577-1.114-1.301-.007-.725.481-1.316 1.09-1.322Zm12.13.065a.76.76 0 0 1 .742.777.76.76 0 0 1-.76.76.76.76 0 0 1-.74-.777.76.76 0 0 1 .758-.76Zm-4.183.147c.508.005.914.444.908.979-.006.535-.422.964-.93.958-.508-.006-.914-.444-.908-.98.006-.534.423-.963.93-.958Zm-4.101.01c.55-.008 1.002.49 1.01 1.112.008.621-.431 1.131-.98 1.138-.55.007-1.002-.491-1.01-1.113-.007-.621.431-1.13.98-1.138Zm-13.572.29c.21-.028.462.558.56 1.308.098.75.007 1.38-.204 1.408-.21.028-.46-.558-.56-1.308-.098-.75-.007-1.38.204-1.408Zm1.854.715c.33-.065.715.476.86 1.208.144.732-.007 1.378-.338 1.443-.33.065-.715-.475-.86-1.207-.144-.732.007-1.379.338-1.444Zm2.639.589c.452-.109.958.388 1.131 1.11.173.721-.053 1.394-.505 1.502-.452.108-.959-.389-1.131-1.11-.173-.722.053-1.394.505-1.502Zm24.058.068c.122.113.107.328-.034.48-.141.153-.354.185-.476.073-.122-.113-.107-.328.034-.48.14-.153.354-.185.476-.073Zm-20.779.227c.547-.131 1.13.34 1.3 1.05.17.712-.136 1.395-.684 1.527-.547.13-1.13-.34-1.3-1.051-.17-.712.135-1.395.683-1.526Zm16.556.033c.337.094.528.463.427.823-.1.36-.455.577-.792.483-.336-.095-.528-.463-.427-.824.101-.36.456-.576.792-.482Zm-12.821.223c.537-.114 1.084.316 1.22.96.137.645-.188 1.26-.725 1.375-.537.113-1.084-.317-1.22-.962-.137-.644.187-1.26.725-1.373ZM6.078 26.79c.123-.03.363.516.535 1.22.172.704.211 1.3.088 1.33-.124.03-.364-.516-.536-1.22-.172-.704-.211-1.3-.087-1.33Zm20.36.017a.863.863 0 0 1 .838.887.863.863 0 0 1-.858.867c-.469-.005-.845-.402-.839-.887.006-.484.39-.872.859-.867Zm-4.194.057c.543-.014.995.447 1.01 1.03.015.582-.413 1.065-.955 1.08-.543.013-.995-.447-1.01-1.03-.015-.582.412-1.066.955-1.08Zm-14.791.729c.26-.076.633.42.832 1.107.2.687.15 1.305-.11 1.38-.26.076-.632-.42-.831-1.106-.2-.687-.15-1.305.11-1.381Zm2.217.622c.383-.143.903.297 1.159.984s.153 1.36-.231 1.503c-.384.143-.904-.297-1.16-.984-.256-.686-.153-1.36.231-1.503Zm2.969.422c.459-.19 1.056.197 1.333.865.276.669.129 1.365-.33 1.555-.46.19-1.056-.197-1.333-.866-.277-.668-.13-1.364.33-1.554Zm20.421-.046c.255.091.38.394.28.677-.1.283-.39.439-.645.348-.255-.091-.381-.394-.28-.677.1-.283.39-.439.645-.348Zm-17.017.31c.53-.235 1.2.11 1.493.773.293.662.1 1.39-.43 1.625-.532.236-1.2-.11-1.494-.772-.294-.662-.1-1.39.43-1.626Zm-9.898-.337c.056-.018.262.46.46 1.068.198.608.312 1.116.256 1.135-.057.018-.263-.46-.46-1.068-.198-.609-.313-1.116-.256-1.135Zm13.62.685c.424-.332 1.075-.208 1.453.276.378.484.342 1.145-.082 1.476-.424.331-1.074.208-1.453-.276-.378-.484-.341-1.145.082-1.476Zm8.955-.379a.758.758 0 0 1 .757.758.758.758 0 0 1-.775.741.758.758 0 0 1-.758-.758.758.758 0 0 1 .775-.741Zm-4.199.176a.926.926 0 0 1 .91.941.926.926 0 0 1-.931.92.926.926 0 0 1-.91-.94.926.926 0 0 1 .931-.92Zm-17.493.224c.165-.06.505.44.758 1.118.254.679.325 1.28.16 1.341-.165.062-.505-.438-.759-1.117-.253-.68-.325-1.28-.16-1.341Zm1.756.756c.275-.134.76.294 1.084.955.323.662.363 1.307.088 1.441-.275.135-.76-.292-1.083-.954-.324-.662-.364-1.307-.089-1.442Zm2.526.461c.394-.232 1.03.12 1.42.787.39.665.387 1.393-.008 1.624-.395.232-1.032-.12-1.422-.787-.39-.665-.386-1.393.01-1.624Zm23.914.191c.087.132.04.317-.105.413-.145.095-.334.065-.421-.068-.087-.132-.04-.317.105-.413.145-.095.334-.065.42.068Zm-20.808.335c.415-.296 1.082-.072 1.491.5.41.573.406 1.277-.008 1.573-.414.296-1.082.072-1.491-.5-.41-.573-.405-1.277.008-1.573Zm16.927-.06c.237.213.231.605-.012.875-.243.27-.633.316-.87.103-.236-.214-.23-.605.013-.875.243-.27.633-.316.87-.103Zm-13.357.347c.376-.366 1.04-.294 1.482.16.442.455.496 1.12.12 1.486-.377.366-1.04.294-1.483-.16-.442-.455-.495-1.12-.12-1.487Zm3.991.1c.343-.368.945-.364 1.345.008.4.373.445.974.102 1.341-.343.368-.945.364-1.345-.009-.4-.372-.445-.973-.102-1.34Zm-14.904-.428c.081-.04.389.428.686 1.044.298.617.473 1.149.391 1.188-.082.04-.39-.428-.687-1.045-.297-.616-.472-1.148-.39-1.187Zm19.707.106a.795.795 0 0 1 .813.775.794.794 0 0 1-.79.8.794.794 0 0 1-.813-.775.794.794 0 0 1 .79-.8Zm-18.384.609c.194-.103.618.316.948.936.33.62.441 1.206.248 1.309-.194.103-.618-.316-.948-.936-.33-.62-.441-1.206-.248-1.309Zm2.064.553c.295-.192.872.17 1.29.807.416.639.514 1.312.22 1.505-.296.193-.873-.169-1.29-.807-.416-.638-.515-1.312-.22-1.505Zm2.81.616c.336-.263.957-.032 1.388.517.431.55.51 1.208.174 1.471-.335.263-.956.032-1.388-.517-.43-.549-.509-1.207-.174-1.47Zm20.097.012c.1.195-.008.448-.24.566-.23.118-.499.056-.598-.139-.099-.195.008-.448.24-.566.231-.117.5-.055.598.14Zm-16.781.295c.349-.314.975-.188 1.4.282.424.47.485 1.106.137 1.421-.349.315-.975.188-1.4-.282-.424-.47-.486-1.106-.137-1.42Zm12.885-.064c.235.248.194.668-.092.94-.285.271-.708.29-.943.042-.235-.247-.194-.668.092-.94.286-.27.708-.29.943-.042Zm-9.251.324c.278-.376.878-.403 1.339-.06.46.342.609.923.33 1.299-.279.375-.878.402-1.34.06-.46-.342-.608-.924-.33-1.3Zm-11.809-.226c.105-.066.493.358.867.948s.592 1.121.488 1.188c-.105.066-.493-.358-.867-.948s-.592-1.121-.488-1.188Zm16.529-.078c.47-.008.855.34.861.778.007.436-.367.797-.836.804-.468.007-.854-.341-.86-.778-.008-.437.367-.797.836-.804Zm-14.874.773c.185-.138.676.207 1.095.77.419.564.608 1.132.423 1.27-.186.138-.676-.206-1.095-.77-.42-.563-.609-1.132-.423-1.27Zm2.38.588c.252-.222.825.016 1.28.532.455.516.62 1.115.367 1.337-.253.223-.826-.015-1.281-.531-.455-.516-.619-1.115-.366-1.338Zm22.494-.033c.064.097.02.238-.098.315-.118.077-.265.062-.328-.035-.064-.096-.02-.237.098-.315.118-.077.265-.061.328.035Zm-19.507.466c.277-.288.873-.166 1.33.274.457.44.603 1.03.326 1.318-.277.288-.872.165-1.33-.274-.457-.44-.603-1.03-.326-1.318Zm15.33-.16c.278-.12.583-.038.68.186.098.223-.05.503-.328.624s-.583.038-.68-.186c-.098-.223.05-.503.328-.624Zm-21.889-.079c.046-.035.398.35.786.86s.665.951.619.986c-.046.035-.398-.35-.786-.86s-.665-.951-.619-.986Zm9.921.556c.253-.341.82-.348 1.268-.017.447.332.604.877.35 1.218-.252.34-.82.348-1.266.016-.447-.332-.604-.877-.352-1.217Zm3.717.104c.196-.346.703-.43 1.132-.188.429.243.617.721.421 1.067-.196.347-.703.43-1.132.188-.428-.243-.617-.72-.42-1.067Zm4.564-.442c.399-.006.726.277.732.633.005.356-.313.649-.712.655-.398.006-.726-.277-.731-.633-.006-.355.313-.649.711-.655Zm-17.027.388c.12-.1.58.257 1.028.798.447.541.712 1.06.592 1.16-.121.1-.581-.258-1.029-.799-.447-.54-.712-1.06-.591-1.16Zm1.984.683c.181-.179.72.074 1.202.564.482.49.725 1.033.544 1.211-.182.179-.72-.074-1.202-.564-.482-.49-.726-1.032-.544-1.211Zm2.626.454c.23-.24.783-.084 1.233.35.45.432.629.978.398 1.218-.23.24-.783.084-1.233-.349-.45-.433-.629-.978-.398-1.219Zm18.388-.069c.072.108-.011.288-.184.401-.173.114-.37.119-.442.01-.071-.108.011-.288.184-.401.173-.114.371-.119.442-.01Zm-15.35.439c.214-.29.75-.255 1.198.077.446.332.635.835.42 1.124-.214.29-.75.255-1.198-.077-.447-.331-.635-.835-.42-1.124Zm11.181-.181c.294-.128.615-.04.718.197.102.236-.052.531-.346.659-.293.127-.614.04-.717-.197-.103-.236.052-.532.345-.66Zm-7.782.399c.18-.316.666-.378 1.089-.139.423.24.62.69.441 1.005-.178.316-.666.378-1.088.138-.423-.239-.62-.689-.442-1.005Zm-10.612-.378c.058-.056.487.296.957.786.47.49.805.931.747.987-.058.056-.487-.296-.957-.785-.47-.49-.805-.932-.747-.988Zm14.847.067c.404-.006.735.266.74.607.006.342-.317.624-.72.63-.404.006-.736-.265-.74-.607-.006-.341.316-.623.72-.63Zm-13.308.54c.115-.117.603.178 1.09.658.488.48.79.963.675 1.08-.114.116-.602-.179-1.09-.659-.487-.48-.79-.963-.675-1.08Zm2.206.55c.153-.177.652.002 1.114.4.463.399.714.866.562 1.043-.153.178-.652-.002-1.115-.4-.463-.399-.714-.865-.561-1.043Zm19.791.018c.044.047.026.133-.04.193-.064.06-.152.071-.195.024-.043-.047-.025-.133.04-.193s.152-.07.195-.024Zm-17.082.356c.182-.225.68-.123 1.113.227.433.35.636.817.454 1.041-.182.225-.68.123-1.113-.227-.433-.35-.636-.817-.454-1.041Zm14.248-.104c.089.135.001.35-.196.479s-.428.125-.517-.01c-.088-.135 0-.35.196-.479.197-.13.429-.125.517.01Zm-11.196.426c.158-.264.617-.282 1.027-.038.409.243.613.656.455.921-.158.265-.618.283-1.027.04-.41-.244-.613-.657-.455-.922Zm3.32.145c.105-.288.485-.414.85-.281.364.132.574.473.47.76-.105.288-.485.415-.85.282-.364-.132-.574-.473-.47-.76Zm4.057-.421c.331-.005.604.2.608.457.004.258-.262.471-.594.476-.332.005-.604-.2-.608-.457-.004-.258.262-.47.594-.476Zm-14.862.288c.06-.069.47.186.919.568.449.383.764.749.706.818-.06.069-.47-.186-.919-.568-.449-.383-.764-.75-.706-.818Zm1.745.514c.093-.118.543.086 1.004.454.461.369.76.762.665.88-.093.116-.543-.087-1.004-.456-.46-.368-.759-.761-.665-.878Zm2.302.433c.113-.16.558-.039.995.27.436.31.698.69.584.85-.113.16-.558.038-.994-.271-.436-.31-.698-.69-.585-.85Zm15.805-.122c.055.06.029.173-.058.254-.087.08-.202.096-.257.036-.055-.06-.03-.173.058-.253.087-.08.202-.096.257-.037Zm-2.85.279c.08.152-.035.37-.257.488-.221.117-.466.09-.547-.062-.08-.151.035-.37.257-.487.221-.118.466-.09.547.061Zm-10.301.194c.114-.212.536-.206.943.014.406.22.643.569.529.78-.114.211-.536.205-.943-.015-.406-.22-.643-.568-.529-.78Zm3 .126c.099-.217.465-.264.817-.104.354.16.56.466.461.683-.098.218-.464.265-.817.105-.353-.16-.56-.466-.461-.684Zm3.141.078c.044-.221.33-.35.638-.29.309.062.524.29.48.511-.044.221-.33.35-.639.29-.308-.062-.523-.29-.479-.511Zm-11.719-.282c.016-.022.337.195.717.484.38.289.674.54.657.563-.017.022-.338-.195-.717-.484-.38-.29-.674-.541-.657-.563Zm1.047.396c.043-.066.458.125.926.427.469.302.813.6.77.668-.043.066-.457-.125-.926-.427-.468-.302-.813-.601-.77-.668Zm1.905.392c.074-.112.49.033.926.324.437.291.73.619.656.731-.075.113-.49-.032-.927-.324-.437-.291-.73-.618-.656-.73Zm14.048.199c.052.073.009.192-.096.266-.104.074-.23.075-.282.002-.052-.072-.009-.191.096-.265.105-.074.23-.076.282-.003Zm-11.77.153c.084-.147.46-.09.842.126.381.217.623.512.54.659-.084.147-.461.09-.843-.126-.381-.217-.623-.512-.539-.659Zm8.379.362c-.038-.155.104-.324.317-.377.214-.053.418.03.457.186.038.156-.104.325-.317.377-.214.053-.418-.03-.457-.186Zm-5.778-.154c.076-.172.41-.191.744-.043.335.149.545.409.469.58-.076.173-.41.192-.745.044-.335-.149-.545-.409-.468-.58Zm2.813.056c.066-.18.341-.243.615-.143.275.1.444.327.378.506-.065.18-.34.243-.615.143-.274-.1-.443-.327-.378-.506Zm-8.672-.039c.022-.04.379.113.798.341.419.228.741.445.72.484-.021.04-.378-.114-.797-.342-.42-.228-.742-.444-.72-.483Zm1.366.339c.038-.07.418.065.85.3.432.234.75.481.713.55-.038.07-.419-.063-.85-.298-.432-.235-.751-.482-.713-.552Zm1.868.319c.048-.095.412-.006.812.198.401.204.687.446.639.541-.049.095-.413.006-.813-.198-.4-.205-.686-.447-.638-.541Zm10.319.144c.044.085-.008.198-.114.253-.107.054-.228.03-.272-.054-.044-.085.007-.198.114-.253.107-.055.228-.03.272.054Zm-8.114.101c.051-.116.366-.087.703.064.337.15.568.367.516.483-.052.115-.367.087-.704-.064-.336-.15-.567-.367-.515-.483Zm2.476.1c.056-.131.3-.153.544-.048.244.105.396.297.34.428-.056.131-.3.153-.544.048-.244-.105-.396-.296-.34-.428Zm2.549.055c.02-.138.203-.227.409-.197.206.03.358.166.338.304-.02.139-.203.227-.41.198-.206-.03-.357-.166-.337-.305Zm-8.07.133c.018-.04.308.048.648.2.34.15.6.305.582.346-.018.041-.308-.048-.648-.2-.34-.15-.6-.305-.582-.346Zm1.226.2c.034-.072.373.017.757.2.384.181.668.387.634.459-.034.072-.373-.018-.757-.2-.384-.182-.668-.388-.634-.46Zm1.869.282c.028-.071.3-.03.608.092.308.121.536.277.508.347-.028.07-.3.029-.608-.093-.308-.12-.536-.276-.508-.347Zm2.011.115c.034-.09.263-.086.512.007.249.094.423.241.39.33-.034.09-.262.086-.511-.007s-.424-.241-.39-.33Zm4.871-.015c.015.08-.063.16-.173.18-.11.02-.211-.029-.226-.108-.014-.08.064-.16.174-.18.11-.02.21.029.225.108Zm-2.711.06c.028-.1.21-.134.404-.077.196.056.33.181.302.28-.028.098-.209.133-.404.077-.195-.057-.33-.182-.302-.28Zm-4.521.342c.012-.028.155.009.319.081.163.073.286.155.274.182-.012.028-.155-.009-.319-.081-.164-.073-.286-.155-.274-.182Zm.805.044c.015-.042.24 0 .501.092.262.093.462.203.447.245-.015.042-.239 0-.5-.093-.263-.093-.463-.202-.448-.244Zm1.578.152c.017-.055.214-.042.44.027.226.07.395.17.379.224-.017.054-.214.042-.44-.027-.226-.07-.395-.17-.379-.224Zm1.721.064c.012-.063.161-.087.333-.053.171.034.3.113.288.176-.013.063-.162.087-.334.053-.171-.034-.3-.113-.287-.176Zm2.272.005c.002.055-.073.102-.165.104-.093.002-.17-.041-.17-.096-.002-.055.072-.102.165-.104.093-.002.17.041.17.096Zm-2.187.4c.003-.033.095-.05.206-.04.11.012.197.047.194.08-.003.033-.096.05-.206.04-.11-.012-.198-.047-.194-.08Zm1.652.012c0 .035-.043.065-.099.066-.055.001-.1-.026-.101-.062-.001-.035.043-.065.098-.066.056-.001.101.027.102.062Z"/>
</svg>
